<?xml version="1.0" encoding="UTF-8" standalone="no"?>
<!DOCTYPE svg PUBLIC "-//W3C//DTD SVG 1.1//EN" "http://www.w3.org/Graphics/SVG/1.1/DTD/svg11.dtd">
<svg width="100%" height="100%" viewBox="0 0 411 643" version="1.1" xmlns="http://www.w3.org/2000/svg" xmlns:xlink="http://www.w3.org/1999/xlink" xml:space="preserve" style="fill-rule:evenodd;clip-rule:evenodd;stroke-linejoin:round;stroke-miterlimit:1.41421;">
    <g transform="matrix(1,0,0,1,-434.858,-71.5161)">
        <g class="logo" transform="matrix(1,0,0,1,5.54652,28.3313)">
            <g class="symbol" transform="matrix(0.730839,0,0,0.730839,-11.6879,-117.931)">
                <g transform="matrix(1,0,0,1,0,-3.30776)">
                    <path d="M738.748,372.292C743.056,377.12 743.923,383.318 741.56,389.234C673.786,404.652 629.197,430.744 629.197,460.312C629.197,507.636 743.42,546.057 884.109,546.057C1024.8,546.057 1139.02,507.636 1139.02,460.312C1139.02,431.943 1097.97,406.773 1034.79,391.162C1031.65,385.195 1031.87,378.745 1035.66,373.578C1039.88,374.479 1044.08,375.435 1048.27,376.451C1056.47,378.44 1064.62,380.658 1072.68,383.17C1078.62,385.021 1084.51,387.033 1090.33,389.247C1094.69,390.909 1099.01,392.685 1103.27,394.6C1106.44,396.026 1109.58,397.529 1112.66,399.123C1114.94,400.295 1117.18,401.516 1119.4,402.791C1121.01,403.719 1122.61,404.675 1124.18,405.663C1125.32,406.378 1126.45,407.109 1127.57,407.858C1135.27,413.023 1142.47,419.041 1148.47,426.135C1149.42,427.248 1150.33,428.386 1151.21,429.549C1152.34,431.045 1153.41,432.582 1154.42,434.16C1155.8,436.295 1157.06,438.504 1158.19,440.777C1159.65,443.716 1160.89,446.763 1161.89,449.89C1163.27,454.209 1164.17,458.676 1164.57,463.192C1165.09,469.111 1164.73,475.1 1163.52,480.916C1162.61,485.23 1161.25,489.443 1159.47,493.475C1157.96,496.89 1156.16,500.174 1154.12,503.298C1153.3,504.554 1152.44,505.785 1151.54,506.989C1145.61,514.961 1138.16,521.699 1130.06,527.412C1124.81,531.117 1119.27,534.408 1113.58,537.386C1107.35,540.646 1100.93,543.534 1094.4,546.147C1086.73,549.218 1078.91,551.912 1071.01,554.33C1062.5,556.937 1053.89,559.222 1045.22,561.261C1034.15,563.866 1022.99,566.067 1011.77,567.954C998.741,570.147 985.637,571.914 972.497,573.33C958.469,574.841 944.397,575.95 930.308,576.703C914.923,577.525 899.516,577.923 884.109,577.923C868.703,577.923 853.295,577.525 837.911,576.703C823.821,575.95 809.75,574.841 795.721,573.33C782.582,571.914 769.478,570.147 756.445,567.954C745.232,566.067 734.069,563.866 722.999,561.261C714.332,559.222 705.72,556.937 697.206,554.33C689.308,551.912 681.489,549.218 673.82,546.147C667.293,543.533 660.871,540.646 654.64,537.387C648.947,534.409 643.411,531.117 638.159,527.412C630.061,521.7 622.611,514.963 616.679,506.992C615.783,505.788 614.923,504.557 614.102,503.301C612.059,500.176 610.26,496.891 608.752,493.475C606.973,489.442 605.603,485.227 604.701,480.911C603.486,475.096 603.126,469.11 603.647,463.192C604.044,458.675 604.953,454.205 606.333,449.885C607.331,446.759 608.575,443.712 610.035,440.773C611.163,438.502 612.421,436.296 613.791,434.163C614.805,432.584 615.881,431.046 617.012,429.549C617.892,428.385 618.804,427.246 619.747,426.133C625.754,419.04 632.945,413.022 640.652,407.858C641.77,407.109 642.9,406.377 644.04,405.662C645.613,404.675 647.207,403.719 648.817,402.792C651.033,401.516 653.281,400.295 655.554,399.123C658.643,397.53 661.779,396.026 664.95,394.6C669.208,392.685 673.528,390.909 677.892,389.247C683.705,387.033 689.595,385.022 695.534,383.17C703.595,380.658 711.746,378.44 719.951,376.451C726.188,374.939 732.456,373.558 738.748,372.292Z" style="fill:rgb(33,150,243);"/>
                </g>
                <g transform="matrix(-0.5,-0.866025,0.866025,-0.5,920.438,1471.71)">
                    <path d="M738.748,372.292C743.056,377.12 743.923,383.318 741.56,389.234C673.786,404.652 629.197,430.744 629.197,460.312C629.197,507.636 743.42,546.057 884.109,546.057C1024.8,546.057 1139.02,507.636 1139.02,460.312C1139.02,431.943 1097.97,406.773 1034.79,391.162C1031.65,385.195 1031.87,378.745 1035.66,373.578C1039.88,374.479 1044.08,375.435 1048.27,376.451C1056.47,378.44 1064.62,380.658 1072.68,383.17C1078.62,385.021 1084.51,387.033 1090.33,389.247C1094.69,390.909 1099.01,392.685 1103.27,394.6C1106.44,396.026 1109.58,397.529 1112.66,399.123C1114.94,400.295 1117.18,401.516 1119.4,402.791C1121.01,403.719 1122.61,404.675 1124.18,405.663C1125.32,406.378 1126.45,407.109 1127.57,407.858C1135.27,413.023 1142.47,419.041 1148.47,426.135C1149.42,427.248 1150.33,428.386 1151.21,429.549C1152.34,431.045 1153.41,432.582 1154.42,434.16C1155.8,436.295 1157.06,438.504 1158.19,440.777C1159.65,443.716 1160.89,446.763 1161.89,449.89C1163.27,454.209 1164.17,458.676 1164.57,463.192C1165.09,469.111 1164.73,475.1 1163.52,480.916C1162.61,485.23 1161.25,489.443 1159.47,493.475C1157.96,496.89 1156.16,500.174 1154.12,503.298C1153.3,504.554 1152.44,505.785 1151.54,506.989C1145.61,514.961 1138.16,521.699 1130.06,527.412C1124.81,531.117 1119.27,534.408 1113.58,537.386C1107.35,540.646 1100.93,543.534 1094.4,546.147C1086.73,549.218 1078.91,551.912 1071.01,554.33C1062.5,556.937 1053.89,559.222 1045.22,561.261C1034.15,563.866 1022.99,566.067 1011.77,567.954C998.741,570.147 985.637,571.914 972.497,573.33C958.469,574.841 944.397,575.95 930.308,576.703C914.923,577.525 899.516,577.923 884.109,577.923C868.703,577.923 853.295,577.525 837.911,576.703C823.821,575.95 809.75,574.841 795.721,573.33C782.582,571.914 769.478,570.147 756.445,567.954C745.232,566.067 734.069,563.866 722.999,561.261C714.332,559.222 705.72,556.937 697.206,554.33C689.308,551.912 681.489,549.218 673.82,546.147C667.293,543.533 660.871,540.646 654.64,537.387C648.947,534.409 643.411,531.117 638.159,527.412C630.061,521.7 622.611,514.963 616.679,506.992C615.783,505.788 614.923,504.557 614.102,503.301C612.059,500.176 610.26,496.891 608.752,493.475C606.973,489.442 605.603,485.227 604.701,480.911C603.486,475.096 603.126,469.11 603.647,463.192C604.044,458.675 604.953,454.205 606.333,449.885C607.331,446.759 608.575,443.712 610.035,440.773C611.163,438.502 612.421,436.296 613.791,434.163C614.805,432.584 615.881,431.046 617.012,429.549C617.892,428.385 618.804,427.246 619.747,426.133C625.754,419.04 632.945,413.022 640.652,407.858C641.77,407.109 642.9,406.377 644.04,405.662C645.613,404.675 647.207,403.719 648.817,402.792C651.033,401.516 653.281,400.295 655.554,399.123C658.643,397.53 661.779,396.026 664.95,394.6C669.208,392.685 673.528,390.909 677.892,389.247C683.705,387.033 689.595,385.022 695.534,383.17C703.595,380.658 711.746,378.44 719.951,376.451C726.188,374.939 732.456,373.558 738.748,372.292Z" style="fill:rgb(33,150,243);"/>
                </g>
                <g transform="matrix(0.5,-0.866025,-0.866025,-0.5,847.781,1471.71)">
                    <path d="M738.748,372.292C743.056,377.12 743.923,383.318 741.56,389.234C673.786,404.652 629.197,430.744 629.197,460.312C629.197,507.636 743.42,546.057 884.109,546.057C1024.8,546.057 1139.02,507.636 1139.02,460.312C1139.02,431.943 1097.97,406.773 1034.79,391.162C1031.65,385.195 1031.87,378.745 1035.66,373.578C1039.88,374.479 1044.08,375.435 1048.27,376.451C1056.47,378.44 1064.62,380.658 1072.68,383.17C1078.62,385.021 1084.51,387.033 1090.33,389.247C1094.69,390.909 1099.01,392.685 1103.27,394.6C1106.44,396.026 1109.58,397.529 1112.66,399.123C1114.94,400.295 1117.18,401.516 1119.4,402.791C1121.01,403.719 1122.61,404.675 1124.18,405.663C1125.32,406.378 1126.45,407.109 1127.57,407.858C1135.27,413.023 1142.47,419.041 1148.47,426.135C1149.42,427.248 1150.33,428.386 1151.21,429.549C1152.34,431.045 1153.41,432.582 1154.42,434.16C1155.8,436.295 1157.06,438.504 1158.19,440.777C1159.65,443.716 1160.89,446.763 1161.89,449.89C1163.27,454.209 1164.17,458.676 1164.57,463.192C1165.09,469.111 1164.73,475.1 1163.52,480.916C1162.61,485.23 1161.25,489.443 1159.47,493.475C1157.96,496.89 1156.16,500.174 1154.12,503.298C1153.3,504.554 1152.44,505.785 1151.54,506.989C1145.61,514.961 1138.16,521.699 1130.06,527.412C1124.81,531.117 1119.27,534.408 1113.58,537.386C1107.35,540.646 1100.93,543.534 1094.4,546.147C1086.73,549.218 1078.91,551.912 1071.01,554.33C1062.5,556.937 1053.89,559.222 1045.22,561.261C1034.15,563.866 1022.99,566.067 1011.77,567.954C998.741,570.147 985.637,571.914 972.497,573.33C958.469,574.841 944.397,575.95 930.308,576.703C914.923,577.525 899.516,577.923 884.109,577.923C868.703,577.923 853.295,577.525 837.911,576.703C823.821,575.95 809.75,574.841 795.721,573.33C782.582,571.914 769.478,570.147 756.445,567.954C745.232,566.067 734.069,563.866 722.999,561.261C714.332,559.222 705.72,556.937 697.206,554.33C689.308,551.912 681.489,549.218 673.82,546.147C667.293,543.533 660.871,540.646 654.64,537.387C648.947,534.409 643.411,531.117 638.159,527.412C630.061,521.7 622.611,514.963 616.679,506.992C615.783,505.788 614.923,504.557 614.102,503.301C612.059,500.176 610.26,496.891 608.752,493.475C606.973,489.442 605.603,485.227 604.701,480.911C603.486,475.096 603.126,469.11 603.647,463.192C604.044,458.675 604.953,454.205 606.333,449.885C607.331,446.759 608.575,443.712 610.035,440.773C611.163,438.502 612.421,436.296 613.791,434.163C614.805,432.584 615.881,431.046 617.012,429.549C617.892,428.385 618.804,427.246 619.747,426.133C625.754,419.04 632.945,413.022 640.652,407.858C641.77,407.109 642.9,406.377 644.04,405.662C645.613,404.675 647.207,403.719 648.817,402.792C651.033,401.516 653.281,400.295 655.554,399.123C658.643,397.53 661.779,396.026 664.95,394.6C669.208,392.685 673.528,390.909 677.892,389.247C683.705,387.033 689.595,385.022 695.534,383.17C703.595,380.658 711.746,378.44 719.951,376.451C726.188,374.939 732.456,373.558 738.748,372.292Z" style="fill:rgb(33,150,243);"/>
                </g>
                <g transform="matrix(1.16298,0,0,1.16298,-142.488,-66.7862)">
                    <circle cx="882.732" cy="463.109" r="40.177" style="fill:rgb(33,150,243);"/>
                </g>
            </g>
            <g class="arc" transform="matrix(0.83432,0,0,0.83432,-138.275,198.975)">
                <path d="M838.067,505.474L864.288,505.474L785.773,291.607L765.851,291.607L687.335,505.474L712.677,505.474L739.337,429.595L811.407,429.595L838.067,505.474ZM775.372,327.495L803.497,406.011L747.54,406.011L775.372,327.495Z" style="fill:rgb(33,150,243);fill-rule:nonzero;"/>
                <path d="M901.202,386.822L901.202,315.044L946.466,315.044C956.817,315.044 964.825,318.755 970.489,326.177C975.274,332.329 977.814,339.995 978.107,349.175C978.595,361.089 976.153,369.829 970.782,375.396C963.458,383.013 947.442,386.822 922.735,386.822L901.202,386.822ZM915.851,409.234L983.38,505.474L1011.94,505.474L944.562,409.38C963.8,407.329 978.155,401.421 987.628,391.656C997.589,381.304 1002.23,366.802 1001.54,348.15C1000.96,333.111 996.222,320.269 987.335,309.624C977.081,297.613 963.458,291.607 946.466,291.607L877.765,291.607L877.765,505.474L901.202,505.474L901.202,409.234L915.851,409.234Z" style="fill:rgb(33,150,243);fill-rule:nonzero;"/>
                <path d="M1145.68,392.242L1165.02,378.472C1149.1,356.109 1127.67,344.927 1100.71,344.927C1078.64,344.927 1059.8,352.837 1044.17,368.658C1028.64,384.576 1020.88,403.716 1020.88,426.079C1020.88,448.345 1028.64,467.437 1044.17,483.355C1059.8,499.175 1078.64,507.085 1100.71,507.085C1127.67,507.085 1149.1,495.904 1165.02,473.54L1145.68,459.771C1134.45,475.396 1119.46,483.208 1100.71,483.208C1085.28,483.208 1072.1,477.593 1061.16,466.363C1050.23,455.23 1044.76,441.802 1044.76,426.079C1044.76,410.357 1050.23,396.88 1061.16,385.65C1072.1,374.419 1085.28,368.804 1100.71,368.804C1119.46,368.804 1134.45,376.617 1145.68,392.242Z" style="fill:rgb(33,150,243);fill-rule:nonzero;"/>
            </g>
            <g class="atomic-react" transform="matrix(1,0,0,1,-208.162,-33.024)">
                <path d="M660.825,671.302L639.942,717.772L641.457,718.481L650.062,699.403L673.136,699.403L681.74,718.481L683.255,717.772L662.372,671.302L660.825,671.302ZM650.835,697.727L661.599,673.686L672.362,697.727L650.835,697.727Z" style="fill:rgb(33,150,243);fill-rule:nonzero;"/>
                <path d="M693.664,671.302L691.988,671.302L691.988,684.45L686.478,684.45L686.478,686.126L691.988,686.126L691.988,718.481L693.664,718.481L693.664,686.126L699.143,686.126L699.143,684.45L693.664,684.45L693.664,671.302Z" style="fill:rgb(33,150,243);fill-rule:nonzero;"/>
                <path d="M710.486,689.445C707.221,692.775 705.588,696.782 705.588,701.466C705.588,706.149 707.221,710.156 710.486,713.486C713.752,716.816 717.684,718.481 722.281,718.481C726.9,718.481 730.843,716.816 734.108,713.486C737.374,710.156 739.007,706.149 739.007,701.466C739.007,696.782 737.374,692.775 734.108,689.445C730.843,686.115 726.9,684.45 722.281,684.45C717.684,684.45 713.752,686.115 710.486,689.445ZM711.679,712.294C708.735,709.307 707.264,705.698 707.264,701.466C707.264,697.233 708.735,693.613 711.679,690.605C714.622,687.619 718.156,686.126 722.281,686.126C726.428,686.126 729.973,687.619 732.916,690.605C735.859,693.613 737.331,697.233 737.331,701.466C737.331,705.698 735.859,709.307 732.916,712.294C729.973,715.302 726.428,716.806 722.281,716.806C718.156,716.806 714.622,715.302 711.679,712.294Z" style="fill:rgb(33,150,243);fill-rule:nonzero;"/>
                <path d="M779.193,687.64C776.701,689.724 774.95,692.442 773.941,695.794C772.909,692.442 771.148,689.724 768.655,687.64C766.099,685.514 763.252,684.45 760.115,684.45C757.344,684.45 754.787,685.288 752.445,686.964C750.168,688.618 748.406,690.82 747.16,693.57L747.16,684.45L745.452,684.45L745.452,718.481L747.16,718.481L747.16,701.466C747.16,697.233 748.428,693.613 750.963,690.605C753.498,687.619 756.549,686.126 760.115,686.126C763.682,686.126 766.733,687.619 769.268,690.605C771.803,693.613 773.07,697.233 773.07,701.466L773.07,718.481L774.778,718.481L774.778,701.466C774.778,697.233 776.046,693.613 778.581,690.605C781.116,687.619 784.167,686.126 787.733,686.126C791.321,686.126 794.383,687.619 796.918,690.605C799.453,693.613 800.721,697.233 800.721,701.466L800.721,718.481L802.397,718.481L802.397,701.466C802.397,696.782 800.957,692.775 798.078,689.445C795.221,686.115 791.773,684.45 787.733,684.45C784.597,684.45 781.75,685.514 779.193,687.64Z" style="fill:rgb(33,150,243);fill-rule:nonzero;"/>
                <path d="M809.486,684.45L811.162,684.45L811.162,718.481L809.486,718.481L809.486,684.45ZM811.436,671.769C811.748,672.08 811.903,672.462 811.903,672.913C811.903,673.364 811.748,673.751 811.436,674.073C811.125,674.395 810.743,674.557 810.292,674.557C809.841,674.557 809.46,674.395 809.148,674.073C808.837,673.751 808.681,673.364 808.681,672.913C808.681,672.462 808.837,672.08 809.148,671.769C809.46,671.457 809.841,671.302 810.292,671.302C810.743,671.302 811.125,671.457 811.436,671.769Z" style="fill:rgb(33,150,243);fill-rule:nonzero;"/>
                <path d="M847.127,692.442L847.61,693.119L848.964,692.152L848.481,691.475C845.15,686.792 840.65,684.45 834.978,684.45C830.358,684.45 826.416,686.115 823.15,689.445C819.885,692.775 818.252,696.782 818.252,701.466C818.252,706.149 819.885,710.156 823.15,713.486C826.416,716.816 830.358,718.481 834.978,718.481C840.65,718.481 845.15,716.14 848.481,711.456L848.964,710.779L847.61,709.812L847.127,710.489C844.119,714.7 840.069,716.806 834.978,716.806C830.831,716.806 827.286,715.302 824.343,712.294C821.4,709.307 819.928,705.698 819.928,701.466C819.928,697.233 821.4,693.613 824.343,690.605C827.286,687.619 830.831,686.126 834.978,686.126C840.069,686.126 844.119,688.231 847.127,692.442Z" style="fill:rgb(33,150,243);fill-rule:nonzero;"/>
                <path d="M905.779,682.968C905.65,679.852 904.684,677.199 902.879,675.008C900.795,672.537 898.034,671.302 894.597,671.302L880.127,671.302L880.127,718.481L881.803,718.481L881.803,672.977L894.597,672.977C897.54,672.977 899.882,674.03 901.622,676.136C903.169,677.983 903.996,680.282 904.104,683.032C904.233,686.427 903.459,688.994 901.783,690.734C899.635,692.947 895.338,694.054 888.893,694.054L888.216,695.375L904.716,718.481L906.069,717.515L890.504,695.729C896.498,695.6 900.655,694.322 902.976,691.894C904.995,689.81 905.93,686.835 905.779,682.968Z" style="fill:rgb(33,150,243);fill-rule:nonzero;"/>
                <path d="M917.413,689.445C914.148,692.775 912.515,696.782 912.515,701.466C912.515,706.149 914.148,710.156 917.413,713.486C920.679,716.816 924.61,718.481 929.208,718.481C932.732,718.481 935.933,717.45 938.812,715.388C941.712,713.325 943.753,710.607 944.935,707.234L943.356,706.686C942.281,709.716 940.444,712.154 937.845,714.002C935.245,715.871 932.366,716.806 929.208,716.806C925.233,716.806 921.785,715.398 918.863,712.584C915.984,709.769 914.438,706.343 914.223,702.304L945.934,702.304L945.934,701.466C945.934,696.782 944.301,692.775 941.035,689.445C937.77,686.115 933.827,684.45 929.208,684.45C924.61,684.45 920.679,686.115 917.413,689.445ZM914.223,700.628C914.438,696.589 915.984,693.162 918.863,690.348C921.785,687.533 925.233,686.126 929.208,686.126C933.204,686.126 936.652,687.533 939.553,690.348C942.453,693.162 944.011,696.589 944.226,700.628L914.223,700.628Z" style="fill:rgb(33,150,243);fill-rule:nonzero;"/>
                <path d="M985.798,684.45L984.122,684.45L984.122,694.021C982.726,691.142 980.706,688.844 978.064,687.125C975.335,685.342 972.338,684.45 969.072,684.45C964.475,684.45 960.543,686.115 957.277,689.445C954.012,692.775 952.379,696.782 952.379,701.466C952.379,706.149 954.012,710.156 957.277,713.486C960.543,716.816 964.475,718.481 969.072,718.481C972.338,718.481 975.335,717.59 978.064,715.807C980.706,714.088 982.726,711.789 984.122,708.91L984.122,718.481L985.798,718.481L985.798,684.45ZM958.47,712.294C955.526,709.307 954.055,705.698 954.055,701.466C954.055,697.233 955.526,693.613 958.47,690.605C961.413,687.619 964.947,686.126 969.072,686.126C973.219,686.126 976.764,687.619 979.707,690.605C982.629,693.613 984.101,697.233 984.122,701.466C984.101,705.698 982.629,709.318 979.707,712.326C976.764,715.312 973.219,716.806 969.072,716.806C964.947,716.806 961.413,715.302 958.47,712.294Z" style="fill:rgb(33,150,243);fill-rule:nonzero;"/>
                <path d="M1021.12,692.442L1021.6,693.119L1022.96,692.152L1022.47,691.475C1019.14,686.792 1014.64,684.45 1008.97,684.45C1004.35,684.45 1000.41,686.115 997.142,689.445C993.876,692.775 992.243,696.782 992.243,701.466C992.243,706.149 993.876,710.156 997.142,713.486C1000.41,716.816 1004.35,718.481 1008.97,718.481C1014.64,718.481 1019.14,716.14 1022.47,711.456L1022.96,710.779L1021.6,709.812L1021.12,710.489C1018.11,714.7 1014.06,716.806 1008.97,716.806C1004.82,716.806 1001.28,715.302 998.334,712.294C995.391,709.307 993.919,705.698 993.919,701.466C993.919,697.233 995.391,693.613 998.334,690.605C1001.28,687.619 1004.82,686.126 1008.97,686.126C1014.06,686.126 1018.11,688.231 1021.12,692.442Z" style="fill:rgb(33,150,243);fill-rule:nonzero;"/>
                <path d="M1036.59,671.302L1034.91,671.302L1034.91,684.45L1029.4,684.45L1029.4,686.126L1034.91,686.126L1034.91,718.481L1036.59,718.481L1036.59,686.126L1042.07,686.126L1042.07,684.45L1036.59,684.45L1036.59,671.302Z" style="fill:rgb(33,150,243);fill-rule:nonzero;"/>
            </g>
        </g>
    </g>
</svg>
