<?xml version="1.0" encoding="UTF-8" standalone="no"?>
<!DOCTYPE svg PUBLIC "-//W3C//DTD SVG 1.1//EN" "http://www.w3.org/Graphics/SVG/1.1/DTD/svg11.dtd">
<svg width="100%" height="100%" viewBox="0 0 855 516" version="1.1" xmlns="http://www.w3.org/2000/svg" xmlns:xlink="http://www.w3.org/1999/xlink" xml:space="preserve" style="fill-rule:evenodd;clip-rule:evenodd;stroke-linejoin:round;stroke-miterlimit:1.41421;">
    <g transform="matrix(1,0,0,1,-156.962,-96.8777)">
        <g transform="matrix(33.8037,0,0,33.8037,-29538,-2575.44)">
            <g transform="matrix(0.0295826,0,0,0.0295826,873.929,76.4249)">
                <path d="M336.784,494.783L442.467,228.327L483.665,228.327L545.438,386.501C532.837,399.04 523.147,417.946 518.289,440.26L397.109,440.26L367.959,513.583C360.066,504.539 349.212,497.84 336.784,494.783ZM509.216,409.361L459.303,282.994L409.191,409.361L509.216,409.361Z" style="fill:rgb(64,102,132);"/>
            </g>
            <g transform="matrix(1,0,0,1,-0.591652,0)">
                <path d="M892.877,91.851L892.877,83.179L895.502,83.179C896.334,83.179 896.972,83.363 897.415,83.73C897.859,84.097 898.08,84.631 898.08,85.33C898.08,86.486 897.496,87.306 896.328,87.791L899.223,91.851L897.711,91.851L895.244,88.183L894.096,88.183L894.096,91.851L892.877,91.851ZM894.096,87.263L894.494,87.263C896.041,87.263 896.815,86.656 896.815,85.441C896.815,84.547 896.166,84.099 894.869,84.099L894.096,84.099L894.096,87.263Z" style="fill:rgb(64,102,132);fill-rule:nonzero;"/>
            </g>
            <g transform="matrix(1,0,0,1,-1.1833,0)">
                <path d="M902.985,91.998C902.125,91.998 901.412,91.679 900.846,91.043C900.28,90.406 899.996,89.603 899.996,88.634C899.996,87.599 900.277,86.793 900.837,86.215C901.398,85.636 902.18,85.347 903.184,85.347C903.68,85.347 904.235,85.416 904.848,85.552L904.848,86.519C904.196,86.328 903.664,86.232 903.254,86.232C902.664,86.232 902.191,86.454 901.833,86.897C901.476,87.34 901.297,87.931 901.297,88.67C901.297,89.384 901.481,89.963 901.848,90.404C902.215,90.845 902.696,91.066 903.289,91.066C903.817,91.066 904.36,90.931 904.918,90.662L904.918,91.658C904.172,91.884 903.528,91.998 902.985,91.998Z" style="fill:rgb(64,102,132);fill-rule:nonzero;"/>
            </g>
        </g>
        <path d="M544.335,398.345C551.241,406.431 557.9,414.731 564.235,423.272C570.48,431.694 576.419,440.348 581.916,449.277C586.117,456.101 590.062,463.086 593.675,470.239C596.455,475.743 599.041,481.348 601.375,487.056C603.228,491.59 604.924,496.189 606.418,500.853C607.578,504.474 608.616,508.134 609.505,511.83C610.205,514.743 610.812,517.678 611.306,520.632C611.68,522.869 611.989,525.116 612.223,527.371C612.412,529.196 612.552,531.026 612.636,532.858C612.701,534.276 612.732,535.695 612.726,537.114C612.722,538.127 612.699,539.141 612.656,540.153C612.34,547.516 610.941,554.902 607.902,561.646C607.433,562.686 606.927,563.708 606.381,564.71C605.566,566.207 604.664,567.656 603.676,569.046C602.127,571.226 600.368,573.252 598.439,575.104C595.259,578.156 591.638,580.722 587.772,582.83C581.674,586.154 575.005,588.348 568.22,589.762C562.823,590.887 557.333,591.523 551.829,591.813C546.219,592.107 540.591,592.035 534.984,591.687C526.567,591.164 518.191,590.033 509.906,588.464C501.731,586.916 493.637,584.943 485.642,582.639C481.322,581.395 477.03,580.053 472.768,578.625C468.017,577.034 463.303,575.335 458.63,573.53C450.515,570.398 442.521,566.956 434.638,563.28C425.702,559.113 416.908,554.642 408.246,549.932C395.595,543.054 383.221,535.667 371.105,527.886C358.967,520.091 347.083,511.899 335.449,503.37C325.039,495.738 314.833,487.83 304.811,479.695C293.718,470.692 282.854,461.405 272.276,451.802C261.695,442.196 251.397,432.274 241.479,421.984C232.346,412.507 223.535,402.713 215.187,392.536C207.719,383.432 200.624,374.014 194.084,364.218C191.555,360.431 189.114,356.585 186.76,352.687C184.333,348.668 181.998,344.593 179.771,340.459C176.412,334.223 173.295,327.854 170.485,321.352C168.348,316.406 166.389,311.382 164.652,306.281C163.258,302.187 162.008,298.043 160.934,293.853C160.08,290.52 159.337,287.158 158.731,283.771C158.257,281.125 157.866,278.463 157.572,275.791C157.34,273.678 157.169,271.559 157.068,269.436C156.986,267.703 156.95,265.967 156.966,264.231C156.979,262.921 157.021,261.611 157.096,260.302C157.155,259.274 157.233,258.246 157.334,257.221C157.989,250.53 159.569,243.88 162.461,237.79C162.908,236.85 163.385,235.924 163.893,235.015C164.61,233.734 165.389,232.487 166.231,231.284C167.499,229.469 168.909,227.755 170.443,226.159C173.016,223.483 175.928,221.141 179.053,219.141C184.134,215.89 189.755,213.54 195.542,211.876C199.297,210.797 203.131,210.004 206.995,209.435C212.629,208.606 218.325,208.261 224.017,208.248C224.28,208.248 224.542,208.248 224.805,208.249C227.135,208.266 229.465,208.324 231.792,208.444C239.157,208.824 246.493,209.693 253.759,210.946C256.896,211.486 260.021,212.089 263.132,212.758C268.077,213.819 272.986,215.039 277.86,216.386C289.8,219.687 301.511,223.789 312.997,228.421C321.659,231.913 330.198,235.707 338.619,239.743C342.656,241.678 346.665,243.672 350.651,245.711C351.565,246.179 352.478,246.65 353.389,247.124C351.341,249.326 349.372,251.6 347.496,253.95C345.516,256.429 343.641,258.988 341.865,261.616C341.579,262.041 341.296,262.467 341.015,262.895C340.774,263.264 340.534,263.632 340.298,264.003L339.991,263.847C336.432,262.039 332.856,260.266 329.255,258.543C321.366,254.769 313.37,251.217 305.26,247.944C296.073,244.236 286.737,240.887 277.241,238.058C269.612,235.784 261.88,233.839 254.06,232.342C248.293,231.238 242.476,230.373 236.628,229.839C231.99,229.415 227.331,229.197 222.673,229.258C218.842,229.308 215.011,229.548 211.212,230.05C208.213,230.446 205.232,231.006 202.309,231.791C199.897,232.438 197.521,233.239 195.234,234.247C192.026,235.66 188.964,237.486 186.405,239.899C185.541,240.713 184.737,241.592 184.014,242.534C182.504,244.501 181.353,246.722 180.483,249.04C179.223,252.399 178.541,255.96 178.209,259.525C178.099,260.715 178.028,261.908 177.992,263.103C177.947,264.591 177.954,266.08 178.008,267.567C178.075,269.448 178.215,271.325 178.414,273.196C178.667,275.573 179.015,277.939 179.442,280.291C179.982,283.27 180.646,286.227 181.41,289.157C182.29,292.535 183.303,295.878 184.42,299.184C185.92,303.621 187.611,307.992 189.451,312.298C191.779,317.744 194.347,323.087 197.104,328.329C200.367,334.533 203.894,340.598 207.636,346.525C209.921,350.146 212.289,353.715 214.733,357.23C217.683,361.474 220.744,365.641 223.892,369.739C227.602,374.569 231.436,379.302 235.367,383.953C239.293,388.597 243.317,393.159 247.423,397.645C255.526,406.498 263.946,415.059 272.598,423.375C282.696,433.082 293.115,442.453 303.779,451.534C310.697,457.425 317.721,463.192 324.837,468.843C336.705,478.268 348.844,487.353 361.273,496.025C372.313,503.728 383.576,511.114 395.077,518.111C403.976,523.523 413.016,528.707 422.21,533.6C428.3,536.841 434.457,539.954 440.687,542.917C447.937,546.365 455.285,549.61 462.742,552.586C468.999,555.083 475.334,557.386 481.739,559.475C489.518,562.012 497.401,564.241 505.377,566.065C511.948,567.568 518.585,568.798 525.27,569.663C529.559,570.217 533.869,570.62 538.189,570.831C543.263,571.08 548.355,571.062 553.421,570.667C555.624,570.495 557.82,570.249 560.004,569.913C561.674,569.656 563.337,569.347 564.986,568.977C566.358,568.669 567.72,568.319 569.067,567.916C570.128,567.6 571.18,567.251 572.218,566.867C572.97,566.589 573.715,566.293 574.452,565.977C575.035,565.726 575.612,565.463 576.182,565.186C579.75,563.452 583.113,561.144 585.652,558.065C586.097,557.526 586.515,556.964 586.903,556.382C588.411,554.124 589.475,551.592 590.212,548.985C590.698,547.266 591.044,545.508 591.284,543.738C591.61,541.327 591.739,538.892 591.726,536.46C591.713,533.976 591.552,531.495 591.281,529.026C590.945,525.966 590.439,522.925 589.804,519.913C588.518,513.808 586.727,507.814 584.611,501.948C582.545,496.219 580.169,490.603 577.567,485.098C574.077,477.712 570.18,470.519 565.988,463.508C560.514,454.353 554.53,445.506 548.207,436.917C543.417,430.411 538.427,424.054 533.279,417.828L533.183,417.712C538.384,413.551 542.408,406.649 544.335,398.345Z" style="fill:rgb(33,150,243);"/>
        <g transform="matrix(1,0,0,1,10,-10)">
            <path d="M537.711,106.878C537.046,106.888 536.381,106.9 535.717,106.928C534.395,106.983 533.075,107.082 531.76,107.22C526.157,107.808 520.643,109.103 515.293,110.849C512.174,111.867 509.106,113.042 506.092,114.339C502.451,115.905 498.888,117.65 495.4,119.531C490.58,122.131 485.902,124.991 481.354,128.041C477.077,130.91 472.914,133.947 468.855,137.117C460.181,143.893 451.978,151.263 444.18,159.027C441.524,161.672 438.919,164.366 436.349,167.095L436.051,167.413C436.479,167.609 436.905,167.808 437.331,168.008C437.7,168.182 438.068,168.356 438.435,168.531C441.183,169.853 443.898,171.238 446.573,172.702C448.528,173.772 450.462,174.88 452.374,176.027C453.242,176.547 454.103,177.077 454.963,177.611L455.197,177.758C455.762,177.175 456.329,176.595 456.897,176.017C457.38,175.527 457.864,175.039 458.35,174.552C460.175,172.726 462.021,170.921 463.894,169.144C467.789,165.447 471.793,161.862 475.912,158.416C480.783,154.34 485.82,150.458 491.046,146.847C494.895,144.187 498.85,141.676 502.921,139.368C506.914,137.105 511.022,135.036 515.256,133.262C517.978,132.121 520.754,131.104 523.582,130.258C526.298,129.446 529.065,128.791 531.87,128.371C534.036,128.046 536.227,127.863 538.418,127.878C540.347,127.892 542.279,128.059 544.171,128.44C545.71,128.75 547.222,129.203 548.666,129.82C550.306,130.522 551.852,131.434 553.285,132.495C554.795,133.612 556.182,134.893 557.457,136.271C558.997,137.935 560.376,139.745 561.625,141.635C563.354,144.252 564.834,147.031 566.134,149.883C566.913,151.592 567.626,153.33 568.282,155.09C569.121,157.339 569.87,159.623 570.543,161.927C571.411,164.901 572.153,167.91 572.792,170.94C573.6,174.769 574.244,178.632 574.756,182.512C575.365,187.127 575.789,191.766 576.058,196.413C576.422,202.675 576.509,208.952 576.375,215.221C576.207,223.11 575.688,230.991 574.883,238.84C573.937,248.055 572.57,257.222 570.874,266.328C568.557,278.766 565.644,291.09 562.296,303.289C558.733,316.271 554.675,329.114 550.223,341.817C542.486,363.89 533.557,385.536 523.692,406.741C519.284,416.216 514.7,425.608 509.926,434.904C504.346,445.773 498.505,456.509 492.37,467.075C486.063,477.935 479.442,488.616 472.443,499.044C466.933,507.252 461.185,515.303 455.149,523.134C448.574,531.665 441.653,539.936 434.281,547.791C428.892,553.534 423.272,559.066 417.414,564.33C412.869,568.414 408.177,572.336 403.324,576.049C399.26,579.158 395.082,582.119 390.78,584.889C387.396,587.068 383.934,589.126 380.388,591.029C377.692,592.476 374.948,593.834 372.151,595.076C370.109,595.982 368.04,596.828 365.942,597.598C362.06,599.023 358.074,600.197 354.007,600.96C350.973,601.53 347.886,601.873 344.795,601.855C341.137,601.834 337.432,601.306 334.03,599.914C333.543,599.715 333.064,599.499 332.594,599.265C330.309,598.13 328.242,596.597 326.396,594.843C324.741,593.269 323.262,591.518 321.929,589.666C320.797,588.094 319.767,586.449 318.823,584.758C317.446,582.291 316.25,579.726 315.193,577.108C313.75,573.537 312.566,569.865 311.574,566.144C310.056,560.451 308.975,554.647 308.211,548.806C307.602,544.162 307.189,539.492 306.938,534.815C306.66,529.639 306.581,524.453 306.661,519.27C306.789,510.987 307.333,502.713 308.197,494.474C308.662,490.046 309.223,485.629 309.854,481.221L309.875,481.081C309.417,480.922 308.96,480.759 308.503,480.596C308.12,480.458 307.737,480.32 307.354,480.18C304.497,479.127 301.666,478.007 298.867,476.805C296.824,475.928 294.797,475.01 292.79,474.052C291.88,473.617 290.974,473.173 290.071,472.724L289.915,472.646C289.41,475.846 288.936,479.05 288.507,482.261C287.603,489.03 286.884,495.824 286.391,502.635C285.821,510.499 285.552,518.387 285.652,526.272C285.727,532.181 286.012,538.089 286.55,543.975C286.98,548.672 287.572,553.354 288.359,558.005C288.986,561.708 289.738,565.39 290.637,569.037C291.34,571.891 292.135,574.723 293.034,577.523C293.746,579.741 294.524,581.938 295.376,584.107C296.054,585.832 296.779,587.538 297.555,589.221C298.105,590.412 298.681,591.592 299.284,592.757C299.797,593.749 300.331,594.73 300.885,595.7C302.764,598.985 304.887,602.136 307.29,605.062C309.706,608.003 312.408,610.716 315.397,613.076C316.442,613.9 317.521,614.682 318.633,615.414C320.063,616.355 321.546,617.217 323.076,617.985C325.552,619.228 328.15,620.227 330.815,620.98C335.195,622.217 339.746,622.797 344.292,622.851C351.513,622.938 358.707,621.728 365.64,619.766C370.569,618.372 375.385,616.588 380.075,614.533C385.597,612.113 390.95,609.316 396.14,606.253C403.369,601.987 410.29,597.205 416.932,592.075C424.165,586.489 431.071,580.484 437.684,574.176C443.233,568.882 448.579,563.376 453.717,557.682C459.925,550.802 465.834,543.654 471.499,536.32C476.807,529.45 481.903,522.417 486.816,515.26C494.269,504.403 501.309,493.264 508.007,481.927C514.406,471.097 520.494,460.086 526.312,448.934C532.116,437.808 537.652,426.541 542.939,415.159C552.701,394.143 561.564,372.703 569.302,350.858C574.574,335.977 579.329,320.908 583.412,305.657C586.628,293.646 589.434,281.521 591.682,269.291C592.767,263.393 593.722,257.469 594.523,251.525C595.192,246.553 595.751,241.567 596.197,236.57C596.964,227.96 597.404,219.317 597.432,210.672C597.454,204.158 597.245,197.642 596.751,191.146C596.353,185.925 595.773,180.716 594.969,175.541C594.325,171.394 593.537,167.268 592.577,163.182C591.828,159.998 590.975,156.839 589.998,153.717C589.217,151.221 588.358,148.75 587.409,146.313C586.657,144.382 585.848,142.473 584.975,140.593C584.368,139.285 583.731,137.99 583.061,136.713C582.519,135.681 581.957,134.661 581.372,133.654C577.965,127.793 573.767,122.334 568.621,117.893C567.865,117.241 567.089,116.611 566.294,116.006C565.223,115.191 564.117,114.421 562.98,113.702C561.604,112.833 560.18,112.038 558.715,111.328C556.377,110.197 553.933,109.284 551.428,108.595C548.72,107.849 545.943,107.36 543.147,107.102C541.732,106.971 540.313,106.904 538.892,106.882C538.498,106.877 538.105,106.877 537.711,106.878Z" style="fill:rgb(33,150,243);"/>
        </g>
        <g transform="matrix(1.4342,0,0,1.4342,-145.57,-113.365)">
            <circle cx="369.878" cy="272.694" r="17.225" style="fill:rgb(33,150,243);"/>
        </g>
    </g>
</svg>
