<?xml version="1.0" encoding="UTF-8" standalone="no"?>
<!DOCTYPE svg PUBLIC "-//W3C//DTD SVG 1.1//EN" "http://www.w3.org/Graphics/SVG/1.1/DTD/svg11.dtd">
<svg width="100%" height="100%" viewBox="0 0 184 164" version="1.1" xmlns="http://www.w3.org/2000/svg" xmlns:xlink="http://www.w3.org/1999/xlink" xml:space="preserve" style="fill-rule:evenodd;clip-rule:evenodd;stroke-linejoin:round;stroke-miterlimit:1.41421;">
    <g transform="matrix(1,0,0,1,-4.49912,-15.1442)">
        <g id="Symbol" transform="matrix(0.446036,2.31112e-32,2.31112e-32,0.446036,-1.17751,-11.7517)">
            <g transform="matrix(0.730839,0,0,0.730839,-428.272,-103.233)">
                <path d="M738.748,372.292C743.056,377.12 743.923,383.318 741.56,389.234C673.786,404.652 629.197,430.744 629.197,460.312C629.197,507.636 743.42,546.057 884.109,546.057C1024.8,546.057 1139.02,507.636 1139.02,460.312C1139.02,431.943 1097.97,406.773 1034.79,391.162C1031.65,385.195 1031.87,378.745 1035.66,373.578C1039.88,374.479 1044.08,375.435 1048.27,376.451C1056.47,378.44 1064.62,380.658 1072.68,383.17C1078.62,385.021 1084.51,387.033 1090.33,389.247C1094.69,390.909 1099.01,392.685 1103.27,394.6C1106.44,396.026 1109.58,397.529 1112.66,399.123C1114.94,400.295 1117.18,401.516 1119.4,402.791C1121.01,403.719 1122.61,404.675 1124.18,405.663C1125.32,406.378 1126.45,407.109 1127.57,407.858C1135.27,413.023 1142.47,419.041 1148.47,426.135C1149.42,427.248 1150.33,428.386 1151.21,429.549C1152.34,431.045 1153.41,432.582 1154.42,434.16C1155.8,436.295 1157.06,438.504 1158.19,440.777C1159.65,443.716 1160.89,446.763 1161.89,449.89C1163.27,454.209 1164.17,458.676 1164.57,463.192C1165.09,469.111 1164.73,475.1 1163.52,480.916C1162.61,485.23 1161.25,489.443 1159.47,493.475C1157.96,496.89 1156.16,500.174 1154.12,503.298C1153.3,504.554 1152.44,505.785 1151.54,506.989C1145.61,514.961 1138.16,521.699 1130.06,527.412C1124.81,531.117 1119.27,534.408 1113.58,537.386C1107.35,540.646 1100.93,543.534 1094.4,546.147C1086.73,549.218 1078.91,551.912 1071.01,554.33C1062.5,556.937 1053.89,559.222 1045.22,561.261C1034.15,563.866 1022.99,566.067 1011.77,567.954C998.741,570.147 985.637,571.914 972.497,573.33C958.469,574.841 944.397,575.95 930.308,576.703C914.923,577.525 899.516,577.923 884.109,577.923C868.703,577.923 853.295,577.525 837.911,576.703C823.821,575.95 809.75,574.841 795.721,573.33C782.582,571.914 769.478,570.147 756.445,567.954C745.232,566.067 734.069,563.866 722.999,561.261C714.332,559.222 705.72,556.937 697.206,554.33C689.308,551.912 681.489,549.218 673.82,546.147C667.293,543.533 660.871,540.646 654.64,537.387C648.947,534.409 643.411,531.117 638.159,527.412C630.061,521.7 622.611,514.963 616.679,506.992C615.783,505.788 614.923,504.557 614.102,503.301C612.059,500.176 610.26,496.891 608.752,493.475C606.973,489.442 605.603,485.227 604.701,480.911C603.486,475.096 603.126,469.11 603.647,463.192C604.044,458.675 604.953,454.205 606.333,449.885C607.331,446.759 608.575,443.712 610.035,440.773C611.163,438.502 612.421,436.296 613.791,434.163C614.805,432.584 615.881,431.046 617.012,429.549C617.892,428.385 618.804,427.246 619.747,426.133C625.754,419.04 632.945,413.022 640.652,407.858C641.77,407.109 642.9,406.377 644.04,405.662C645.613,404.675 647.207,403.719 648.817,402.792C651.033,401.516 653.281,400.295 655.554,399.123C658.643,397.53 661.779,396.026 664.95,394.6C669.208,392.685 673.528,390.909 677.892,389.247C683.705,387.033 689.595,385.022 695.534,383.17C703.595,380.658 711.746,378.44 719.951,376.451C726.188,374.939 732.456,373.558 738.748,372.292Z" />
            </g>
            <g transform="matrix(-0.365419,-0.632925,0.632925,-0.365419,244.419,974.764)">
                <path d="M738.748,372.292C743.056,377.12 743.923,383.318 741.56,389.234C673.786,404.652 629.197,430.744 629.197,460.312C629.197,507.636 743.42,546.057 884.109,546.057C1024.8,546.057 1139.02,507.636 1139.02,460.312C1139.02,431.943 1097.97,406.773 1034.79,391.162C1031.65,385.195 1031.87,378.745 1035.66,373.578C1039.88,374.479 1044.08,375.435 1048.27,376.451C1056.47,378.44 1064.62,380.658 1072.68,383.17C1078.62,385.021 1084.51,387.033 1090.33,389.247C1094.69,390.909 1099.01,392.685 1103.27,394.6C1106.44,396.026 1109.58,397.529 1112.66,399.123C1114.94,400.295 1117.18,401.516 1119.4,402.791C1121.01,403.719 1122.61,404.675 1124.18,405.663C1125.32,406.378 1126.45,407.109 1127.57,407.858C1135.27,413.023 1142.47,419.041 1148.47,426.135C1149.42,427.248 1150.33,428.386 1151.21,429.549C1152.34,431.045 1153.41,432.582 1154.42,434.16C1155.8,436.295 1157.06,438.504 1158.19,440.777C1159.65,443.716 1160.89,446.763 1161.89,449.89C1163.27,454.209 1164.17,458.676 1164.57,463.192C1165.09,469.111 1164.73,475.1 1163.52,480.916C1162.61,485.23 1161.25,489.443 1159.47,493.475C1157.96,496.89 1156.16,500.174 1154.12,503.298C1153.3,504.554 1152.44,505.785 1151.54,506.989C1145.61,514.961 1138.16,521.699 1130.06,527.412C1124.81,531.117 1119.27,534.408 1113.58,537.386C1107.35,540.646 1100.93,543.534 1094.4,546.147C1086.73,549.218 1078.91,551.912 1071.01,554.33C1062.5,556.937 1053.89,559.222 1045.22,561.261C1034.15,563.866 1022.99,566.067 1011.77,567.954C998.741,570.147 985.637,571.914 972.497,573.33C958.469,574.841 944.397,575.95 930.308,576.703C914.923,577.525 899.516,577.923 884.109,577.923C868.703,577.923 853.295,577.525 837.911,576.703C823.821,575.95 809.75,574.841 795.721,573.33C782.582,571.914 769.478,570.147 756.445,567.954C745.232,566.067 734.069,563.866 722.999,561.261C714.332,559.222 705.72,556.937 697.206,554.33C689.308,551.912 681.489,549.218 673.82,546.147C667.293,543.533 660.871,540.646 654.64,537.387C648.947,534.409 643.411,531.117 638.159,527.412C630.061,521.7 622.611,514.963 616.679,506.992C615.783,505.788 614.923,504.557 614.102,503.301C612.059,500.176 610.26,496.891 608.752,493.475C606.973,489.442 605.603,485.227 604.701,480.911C603.486,475.096 603.126,469.11 603.647,463.192C604.044,458.675 604.953,454.205 606.333,449.885C607.331,446.759 608.575,443.712 610.035,440.773C611.163,438.502 612.421,436.296 613.791,434.163C614.805,432.584 615.881,431.046 617.012,429.549C617.892,428.385 618.804,427.246 619.747,426.133C625.754,419.04 632.945,413.022 640.652,407.858C641.77,407.109 642.9,406.377 644.04,405.662C645.613,404.675 647.207,403.719 648.817,402.792C651.033,401.516 653.281,400.295 655.554,399.123C658.643,397.53 661.779,396.026 664.95,394.6C669.208,392.685 673.528,390.909 677.892,389.247C683.705,387.033 689.595,385.022 695.534,383.17C703.595,380.658 711.746,378.44 719.951,376.451C726.188,374.939 732.456,373.558 738.748,372.292Z"/>
            </g>
            <g transform="matrix(0.365419,-0.632925,-0.632925,-0.365419,191.319,974.764)">
                <path d="M738.748,372.292C743.056,377.12 743.923,383.318 741.56,389.234C673.786,404.652 629.197,430.744 629.197,460.312C629.197,507.636 743.42,546.057 884.109,546.057C1024.8,546.057 1139.02,507.636 1139.02,460.312C1139.02,431.943 1097.97,406.773 1034.79,391.162C1031.65,385.195 1031.87,378.745 1035.66,373.578C1039.88,374.479 1044.08,375.435 1048.27,376.451C1056.47,378.44 1064.62,380.658 1072.68,383.17C1078.62,385.021 1084.51,387.033 1090.33,389.247C1094.69,390.909 1099.01,392.685 1103.27,394.6C1106.44,396.026 1109.58,397.529 1112.66,399.123C1114.94,400.295 1117.18,401.516 1119.4,402.791C1121.01,403.719 1122.61,404.675 1124.18,405.663C1125.32,406.378 1126.45,407.109 1127.57,407.858C1135.27,413.023 1142.47,419.041 1148.47,426.135C1149.42,427.248 1150.33,428.386 1151.21,429.549C1152.34,431.045 1153.41,432.582 1154.42,434.16C1155.8,436.295 1157.06,438.504 1158.19,440.777C1159.65,443.716 1160.89,446.763 1161.89,449.89C1163.27,454.209 1164.17,458.676 1164.57,463.192C1165.09,469.111 1164.73,475.1 1163.52,480.916C1162.61,485.23 1161.25,489.443 1159.47,493.475C1157.96,496.89 1156.16,500.174 1154.12,503.298C1153.3,504.554 1152.44,505.785 1151.54,506.989C1145.61,514.961 1138.16,521.699 1130.06,527.412C1124.81,531.117 1119.27,534.408 1113.58,537.386C1107.35,540.646 1100.93,543.534 1094.4,546.147C1086.73,549.218 1078.91,551.912 1071.01,554.33C1062.5,556.937 1053.89,559.222 1045.22,561.261C1034.15,563.866 1022.99,566.067 1011.77,567.954C998.741,570.147 985.637,571.914 972.497,573.33C958.469,574.841 944.397,575.95 930.308,576.703C914.923,577.525 899.516,577.923 884.109,577.923C868.703,577.923 853.295,577.525 837.911,576.703C823.821,575.95 809.75,574.841 795.721,573.33C782.582,571.914 769.478,570.147 756.445,567.954C745.232,566.067 734.069,563.866 722.999,561.261C714.332,559.222 705.72,556.937 697.206,554.33C689.308,551.912 681.489,549.218 673.82,546.147C667.293,543.533 660.871,540.646 654.64,537.387C648.947,534.409 643.411,531.117 638.159,527.412C630.061,521.7 622.611,514.963 616.679,506.992C615.783,505.788 614.923,504.557 614.102,503.301C612.059,500.176 610.26,496.891 608.752,493.475C606.973,489.442 605.603,485.227 604.701,480.911C603.486,475.096 603.126,469.11 603.647,463.192C604.044,458.675 604.953,454.205 606.333,449.885C607.331,446.759 608.575,443.712 610.035,440.773C611.163,438.502 612.421,436.296 613.791,434.163C614.805,432.584 615.881,431.046 617.012,429.549C617.892,428.385 618.804,427.246 619.747,426.133C625.754,419.04 632.945,413.022 640.652,407.858C641.77,407.109 642.9,406.377 644.04,405.662C645.613,404.675 647.207,403.719 648.817,402.792C651.033,401.516 653.281,400.295 655.554,399.123C658.643,397.53 661.779,396.026 664.95,394.6C669.208,392.685 673.528,390.909 677.892,389.247C683.705,387.033 689.595,385.022 695.534,383.17C703.595,380.658 711.746,378.44 719.951,376.451C726.188,374.939 732.456,373.558 738.748,372.292Z"/>
            </g>
            <g transform="matrix(0.849949,0,0,0.849949,-532.408,-149.626)">
                <circle cx="882.732" cy="463.109" r="40.177"/>
            </g>
        </g>
    </g>
</svg>
