<svg xmlns:rdf="http://www.w3.org/1999/02/22-rdf-syntax-ns#" xmlns="http://www.w3.org/2000/svg" height="780.18" viewBox="0 0 875.02936 780.17639" width="875.03" version="1.1" xmlns:cc="http://creativecommons.org/ns#" xmlns:dc="http://purl.org/dc/elements/1.1/">
 <g stroke="none" fill="#61dafb">
  <path d="m512.45 391.21a76.266 77.855 0 0 1 -76.266 77.855 76.266 77.855 0 0 1 -76.266 -77.855 76.266 77.855 0 0 1 76.266 -77.855 76.266 77.855 0 0 1 76.266 77.855z"/>
  <g fill-rule="evenodd">
   <path d="m277.8 477.26a437.52 180.08 59.793 0 1 -61.2 -466.18 437.52 180.08 59.793 0 1 376.3 291.6 437.52 180.08 59.793 0 1 61.2 466.18 437.52 180.08 59.793 0 1 -376.3 -291.6zm34.163-17.99a399.46 141.49 59.831 0 1 -75.73 -414.16 399.46 141.49 59.831 0 1 323.72 277.69 399.46 141.49 59.831 0 1 75.73 414.16 399.46 141.49 59.831 0 1 -323.72 -277.69z"/>
   <path d="m282.04 297.29a180.08 437.52 29.793 0 1 373.12 -286.09 180.08 437.52 29.793 0 1 -64.38 471.69 180.08 437.52 29.793 0 1 -373.12 286.09 180.08 437.52 29.793 0 1 64.38 -471.69zm32.661 20.591a141.49 399.46 29.831 0 1 320.81 -272.66 141.49 399.46 29.831 0 1 -78.63 419.19 141.49 399.46 29.831 0 1 -320.81 272.66 141.49 399.46 29.831 0 1 78.63 -419.19z"/>
   <path d="m440.7 210.54a180.08 437.52 89.793 0 1 434.32 180.09 180.08 437.52 89.793 0 1 -440.69 180.08 180.08 437.52 89.793 0 1 -434.32 -180.08 180.08 437.52 89.793 0 1 440.69 -180.09zm-1.5016 38.581a141.49 399.46 89.831 0 1 396.53 141.5 141.49 399.46 89.831 0 1 -402.35 141.5 141.49 399.46 89.831 0 1 -396.53 -141.5 141.49 399.46 89.831 0 1 402.35 -141.5z"/>
  </g>
 </g>
</svg>
