<svg xmlns:rdf="http://www.w3.org/1999/02/22-rdf-syntax-ns#" xmlns="http://www.w3.org/2000/svg" height="210.18" viewBox="0 0 210.18423 210.18423" width="210.18" version="1.1" xmlns:cc="http://creativecommons.org/ns#" xmlns:dc="http://purl.org/dc/elements/1.1/">
 <g transform="translate(-9.3064 -10.512)">
  <circle cx="114.4" cy="115.6" r="105.09" fill="#050505" stroke="none"/>
 </g>
 <g transform="translate(-9.3064 -10.512)">
  <ellipse rx="99.922" ry="99.233" cy="115.62" cx="114.2" fill="#fff" stroke="none"/>
 </g>
 <path stroke="none" d="m66.916 72.083-6.944-39.227c8.402-15.831 29.09-18.153 44.588-18.273 12.782-0.09917 30.174 2.2146 43.856 18.761l-6.152 38.739 14.131-0.06091-2.9846 8.8321-97.336 0.24364-3.1674-9.0148z" fill-rule="evenodd" fill="#050505"/>
 <g transform="translate(-9.3064 -10.512)">
  <path opacity="0.99" d="m81.059 166.77c-10.655 5.1844-20.669 13.259-29.03 26.704 16.825 15.115 41.433 22.803 62.625 22.833 20.187 0.0292 40.761-7.0654 61.591-22.403-8.3247-13.085-18.18-22.774-29.719-27.824-19.775 10.24-41.558 10.663-65.467 0.68912z" fill="#050505" stroke="none"/>
  <g transform="matrix(.99988 .015661 -.015680 .99868 1.1321 -3.0145)">
   <path opacity="0.99" d="m150.47 91.945-1.0354 25.37c6.2792-1.0388 12.969-1.6155 14.497-12.791-0.32179-9.3895-6.0037-12.914-13.461-12.578z" stroke="none" fill="#e9a84d"/>
   <ellipse opacity="0.99" rx="6.1545" ry="6.3677" cy="104.25" cx="157.72" stroke="none" fill="#bd5d12"/>
   <ellipse opacity="0.99" rx="4.8697" ry="5.5702" cy="104.19" cx="159.09" stroke="none" fill="#df882a"/>
  </g>
  <g transform="matrix(.99993 -.011415 .011415 .99993 -.94485 .57483)">
   <path opacity="0.99" d="m77.38 91.865 0.97458 25.339c-6.2792-1.0388-12.969-1.6155-14.497-12.791 0.32179-9.3895 6.0645-12.883 13.522-12.548z" stroke="none" fill="#e9a84d"/>
   <path opacity="0.99" d="m63.971 104.1a6.1545 6.3677 0 0 0 6.1545 6.3677 6.1545 6.3677 0 0 0 6.1545 -6.3677 6.1545 6.3677 0 0 0 -6.1545 -6.3677 6.1545 6.3677 0 0 0 -6.1545 6.3677z" stroke="none" fill="#be5d13"/>
   <path opacity="0.99" d="m63.886 103.98c0 3.0763 2.1795 5.6311 4.869 5.6311s4.8697-2.4938 4.8697-5.5702c-0.000002-3.0763-2.1802-5.5702-4.8697-5.5702-2.6895 0.000002-4.869 2.4329-4.869 5.5093z" stroke="none" fill="#de882a"/>
   <path opacity="0.361" d="m72.355 92.889c-5.4751 1.6317-8.0573 5.708-7.7662 12.213 2.2059-1.4312 4.2957-2.234 6.5784-5.1165 1.8931-2.3906 1.255-4.7532 1.1878-7.0961z" stroke="none" fill="#bf5d14"/>
  </g>
 </g>
 <g>
  <path opacity="0.99" d="m68.159 81.127 3.6868 71.566c7.6336 13.128 16.854 9.6593 28.695 10.58 11.855 0.92218 20.611 10.314 36.148-8.8956l4.2564-73.726c-22.68-0.657-50.117 0.222-72.791 0.483z" stroke="none" fill="#f4cf8c"/>
  <path opacity="0.99" d="m71.545 152 0.73093 17.299c3.6918 2.553 7.104 5.749 10.941 7.1651 18.049 6.6614 35.56 5.4051 53.625-7.226l0.24364-17.116c-10.681 7.8818-21.44 11.792-32.283 11.39-17.487-0.0156-26.573-5.047-33.257-11.512z" stroke="none" fill="#dd002a"/>
  <path opacity="0.99" d="m101.61 113.14 6.0507-0.00008c-1.0087-2.8481-2.1992-5.8786-3.0039-9.7115-0.6501 3.4364-1.6646 6.4209-2.8751 9.7115z" stroke="none" fill="#fff"/>
 </g>
 <g stroke="none" fill="#dd002a">
  <path opacity="0.99" d="m99.705 115.77c3.0401-1.3684 6.8078-1.1939 9.734-0.32847l1.5075 2.4872c-1.6931 0.71519-3.227 1.4429-6.3744 1.5486-1.9236 0.0412-3.8011-0.164-6.2883-1.6425z"/>
  <path opacity="0.99" d="m61.157 162.59c-6.8955 9.2574-9.5007 17.752-11.284 26.101l-2.7565-2.1966c3.4902-14.737 8.7551-19.38 14.041-23.904z"/>
  <path opacity="0.99" d="m148.55 162.33c5.0687 8.5279 9.3876 17.432 10.94 26.187l3.1011-2.1105c-3.2719-10.663-8.2514-18.106-14.041-24.076z"/>
 </g>
 <g transform="translate(-9.3064 -10.512)">
  <g>
   <path opacity="0.99" d="m102.48 66.088c-2.3441 6.9875-2.074 12.07 5.1165 16.629l-31.56-0.122-2.68-16.446z" stroke="none" fill="#dd002a"/>
   <path opacity="0.99" d="m124.21 65.833c2.8755 5.1293 3.1424 11.469-4.0116 16.852l31.309-0.05986 2.6801-16.22z" stroke="none" fill="#dd002a"/>
   <path opacity="0.99" d="m102.68 153.68c7.7527 3.1212 15.505 3.0227 23.258 0.17228-2.6397 2.9875-6.0328 6.5159-11.543 6.5467-4.987 0.0279-9.6587-2.2804-11.715-6.719z" stroke="none" fill="#c07216"/>
   <path opacity="0.99" d="m100.81 92.242c-2.5187 0.05247-4.9182 0.50559-7.1621 0.76953-3.8294 1.8415-6.115 4.1795-9.0762 6.4551 4.5667-1.9604 10.205-4.6785 15.229-5.4199 2.5072-0.1136 3.9074 0.64137 4.1406 2.3145-0.5451 1.0339-1.319 1.8077-2.6797 3.4727-1.9341 2.3666-5.8365 3.3022-8.2227 3.7754 1.3745 0.17861 1.1331 0.17344 5.6641 0.0605 2.5632-0.54516 4.0206-2.3356 5.3008-4.3242l0.45703-0.67969 0.39454 11.035 18.457-0.12305 0.31054-10.18 0.0547 0.07617c1.2662 1.9793 2.3135 3.4996 5.2988 4.3262 4.531 0.11286 4.2896 0.11613 5.6641-0.0625-2.3861-0.47318-6.2885-1.4088-8.2226-3.7754-1.3607-1.6649-2.1346-2.4387-2.6797-3.4727 0.23323-1.6731 1.6354-2.4281 4.1426-2.3145 5.3738 0.04127 10.769 3.2427 15.227 5.4219-2.9612-2.2756-5.489-4.555-9.3184-6.3965-3.8526-0.3922-7.5604-1.0922-11.574-0.36523 0.22575 1.5455-0.77937 1.8599-1.5215 2.4375l0.11536 0.95531 0.18932 11.828-14.375-0.12305-0.42773-11.852-0.0117-0.0078 0.0117-0.01758c0.0504-0.0074 0.23041-0.32198 0.30469-0.42578-0.74211-0.57763-1.2609-1.3783-1.0352-2.9238-1.5893-0.38287-3.1431-0.49633-4.6543-0.46484z" stroke="none" fill="#aa651a"/>
   <path opacity="0.99" d="m107.29 132.79c0.51626 2.0169 2.3974 4.717 6.8913 4.4793 5.417-0.28652 5.0971-2.9042 6.2452-4.3932-1.7278 0.48268-2.8446 0.87928-6.2883 1.0337-4.0463 0.18144-4.9368-0.5609-6.8482-1.1198z" stroke="none" fill="#c2761b"/>
   <path opacity="0.99" d="m101.2 214.53 0.48729-7.1875c0.33937-0.90641 1.0828-1.6108 2.071-2.1928l19.796-0.0609c1.025 0.79264 2.2291 1.1078 2.8019 3.1065l-0.0609 6.7611h-5.4211l0.00001-4.5074c0-1.1582-13.644-0.98689-13.644-0.18272l-0.00001 4.751z" stroke="none" fill="#ffb000"/>
  </g>
  <g stroke="none" fill="#dd002a">
   <path opacity="0.99" d="m126.35 208.44c6.0146-0.15439 13.04 0.32304 20.344 0.97458l-5.4211 1.7664c-4.8785-0.92047-9.7085-0.36582-14.74-0.36546z"/>
   <path opacity="0.99" d="m101.63 208.6c-6.0146-0.15439-13.04 0.32304-20.344 0.97458l5.4211 1.7664c4.8785-0.92047 9.7085-0.36582 14.74-0.36546z"/>
   <path opacity="0.99" d="m150.45 188.87 5.1685-0.0431c0.2817 0.40607 0.62462 0.68009 0 1.7659l-1.9382 0.0431-3.9194 4.6947 0.0862 2.7565 2.2397 0.043c0.43414 0.52661 0.36873 1.1246-0.00003 1.7659l-6.116 0.0431c-0.35466-0.65095-0.34791-1.2296-0.12921-1.7659h2.1535v-2.8427l-3.6179-4.5655-2.1535-0.0431c-0.19287-0.44633-0.60512-0.73542-0.0431-1.7228l5.1685-0.0862c0.33223 0.65745 0.3626 1.5426-0.43071 1.6367l2.1535 2.7134 1.852-2.5842c-1.2549-0.96742-0.49009-1.4213-0.47378-1.8089z"/>
  </g>
  <path opacity="0.707" d="m77.428 91.532 0.20765 3.5519 72.374 0.09137 0.30454-4.0141c-11.926-0.23039-24.502-0.32694-35.425-0.18951-12.707 0.15989-25.132 0.6335-37.462 0.5603z" stroke="none" fill="#ab661b"/>
  <circle stroke-linejoin="round" cx="113.62" stroke="#dd002a" cy="72.275" r="5.1333" stroke-width="5.44" fill="none"/>
  <g transform="translate(.10047 .39965)">
   <path d="m114.3 65.001c-0.10454 0.000151-0.19998 0.04319-0.27309 0.10458-0.0731 0.06137-0.131 0.14263-0.17869 0.23921-0.0954 0.19316-0.14644 0.45075-0.14645 0.71057 0.00001 0.25982 0.051 0.51742 0.14645 0.71057 0.49241 1.0509 0.48731 1.0489 0.90473 0.000314 0.0954-0.19319 0.14644-0.45092 0.14644-0.71088s-0.051-0.51769-0.14644-0.71088c-0.0477-0.0966-0.10583-0.17786-0.17909-0.23921-0.0732-0.06135-0.16885-0.1043-0.27347-0.10428zm-1.7505 0c-0.10454 0.000151-0.19998 0.04319-0.27309 0.10458-0.0731 0.06137-0.131 0.14263-0.17869 0.23921-0.0954 0.19316-0.14644 0.45075-0.14645 0.71057 0.00001 0.25982 0.051 0.51742 0.14645 0.71057 0.49241 1.0509 0.48731 1.0489 0.90473 0.000314 0.0954-0.19319 0.14644-0.45092 0.14644-0.71088s-0.051-0.51769-0.14644-0.71088c-0.0477-0.0966-0.10583-0.17786-0.17909-0.23921-0.0732-0.06135-0.16885-0.1043-0.27347-0.10428z"/>
   <path d="m106.55 71.174c0.00016 0.10454 0.0432 0.19998 0.10458 0.27309 0.0614 0.0731 0.14263 0.131 0.23921 0.17869 0.19316 0.0954 0.45075 0.14644 0.71057 0.14645 0.25983-0.00001 0.51742-0.051 0.71058-0.14645 1.051-0.49241 1.0489-0.48731 0.00031-0.90473-0.19319-0.0954-0.45092-0.14644-0.71088-0.14644s-0.51769 0.051-0.71088 0.14644c-0.0966 0.0477-0.17786 0.10583-0.23921 0.17909-0.0614 0.0732-0.1043 0.16885-0.10427 0.27347zm0 1.7505c0.00016 0.10454 0.0432 0.19998 0.10458 0.27309 0.0614 0.0731 0.14263 0.131 0.23921 0.17869 0.19316 0.0954 0.45075 0.14644 0.71057 0.14645 0.25983-0.00001 0.51742-0.051 0.71058-0.14645 1.051-0.49241 1.0489-0.48731 0.00031-0.90473-0.19319-0.0954-0.45092-0.14644-0.71088-0.14644s-0.51769 0.051-0.71088 0.14644c-0.0966 0.0477-0.17786 0.10583-0.23921 0.17909-0.0614 0.0732-0.1043 0.16885-0.10427 0.27347z"/>
   <path d="m112.72 78.924c0.10454-0.00016 0.19998-0.0432 0.27309-0.10458 0.0731-0.0614 0.131-0.14263 0.17869-0.23921 0.0954-0.19316 0.14644-0.45075 0.14645-0.71057-0.00001-0.25983-0.051-0.51742-0.14645-0.71058-0.49241-1.051-0.48731-1.0489-0.90473-0.00031-0.0954 0.19319-0.14644 0.45092-0.14644 0.71088s0.051 0.51769 0.14644 0.71088c0.0477 0.0966 0.10583 0.17786 0.17909 0.23921 0.0732 0.0614 0.16885 0.1043 0.27347 0.10427zm1.7505 0c0.10454-0.00016 0.19998-0.0432 0.27309-0.10458 0.0731-0.0614 0.131-0.14263 0.17869-0.23921 0.0954-0.19316 0.14644-0.45075 0.14645-0.71057-0.00001-0.25983-0.051-0.51742-0.14645-0.71058-0.49241-1.051-0.48731-1.0489-0.90473-0.00031-0.0954 0.19319-0.14644 0.45092-0.14644 0.71088s0.051 0.51769 0.14644 0.71088c0.0477 0.0966 0.10583 0.17786 0.17909 0.23921 0.0732 0.0614 0.16885 0.1043 0.27347 0.10427z"/>
   <path d="m120.47 72.751c-0.00016-0.10454-0.0432-0.19998-0.10458-0.27309-0.0614-0.0731-0.14263-0.131-0.23921-0.17869-0.19316-0.0954-0.45075-0.14644-0.71057-0.14645-0.25983 0.00001-0.51742 0.051-0.71058 0.14645-1.051 0.49241-1.0489 0.48731-0.00031 0.90473 0.19319 0.0954 0.45092 0.14644 0.71088 0.14644s0.51769-0.051 0.71088-0.14644c0.0966-0.0477 0.17786-0.10583 0.23921-0.17909 0.0614-0.0732 0.1043-0.16885 0.10427-0.27347zm0-1.7505c-0.00016-0.10454-0.0432-0.19998-0.10458-0.27309-0.0614-0.0731-0.14263-0.131-0.23921-0.17869-0.19316-0.0954-0.45075-0.14644-0.71057-0.14645-0.25983 0.00001-0.51742 0.051-0.71058 0.14645-1.051 0.49241-1.0489 0.48731-0.00031 0.90473 0.19319 0.0954 0.45092 0.14644 0.71088 0.14644s0.51769-0.051 0.71088-0.14644c0.0966-0.0477 0.17786-0.10583 0.23921-0.17909 0.0614-0.0732 0.1043-0.16885 0.10427-0.27347z"/>
   <path d="m118.99 67.597c-0.074-0.07381-0.17195-0.11086-0.26705-0.11915-0.0951-0.0083-0.19349 0.0082-0.2955 0.04279-0.20404 0.06913-0.42228 0.21518-0.60601 0.39889-0.18372 0.18373-0.3298 0.40193-0.3989 0.60601-0.39494 1.0913-0.39708 1.0862 0.63953 0.63996 0.20406-0.06915 0.42239-0.2153 0.60621-0.39912s0.33-0.40212 0.39912-0.60622c0.0346-0.10204 0.0509-0.2006 0.0425-0.29578-0.008-0.09518-0.0456-0.19315-0.11964-0.2671zm-1.2378-1.2378c-0.074-0.07381-0.17195-0.11086-0.26705-0.11916s-0.19349 0.0082-0.2955 0.04279c-0.20404 0.06913-0.42228 0.21518-0.606 0.39889-0.18373 0.18373-0.32981 0.40193-0.3989 0.60601-0.39495 1.0913-0.39709 1.0862 0.63952 0.63996 0.20406-0.06915 0.42239-0.2153 0.60621-0.39912s0.33-0.40212 0.39912-0.60622c0.0346-0.10204 0.0509-0.2006 0.0425-0.29578-0.008-0.09518-0.0456-0.19315-0.11964-0.2671z"/>
   <path d="m109.14 66.482c-0.0738 0.074-0.11086 0.17195-0.11915 0.26705-0.008 0.0951 0.008 0.19349 0.0428 0.2955 0.0691 0.20404 0.21518 0.42228 0.39889 0.60601 0.18373 0.18372 0.40193 0.3298 0.60601 0.3989 1.0913 0.39494 1.0862 0.39708 0.63996-0.63953-0.0692-0.20406-0.2153-0.42239-0.39912-0.60621s-0.40212-0.33-0.60622-0.39912c-0.10203-0.0346-0.20059-0.0509-0.29578-0.0425-0.0952 0.008-0.19314 0.0456-0.2671 0.11964zm-1.2378 1.2378c-0.0738 0.074-0.11086 0.17195-0.11915 0.26705-0.008 0.0951 0.008 0.19349 0.0428 0.2955 0.0691 0.20404 0.21518 0.42228 0.39889 0.606 0.18373 0.18373 0.40193 0.32981 0.60601 0.3989 1.0913 0.39495 1.0862 0.39709 0.63996-0.63952-0.0691-0.20406-0.2153-0.42239-0.39912-0.60621s-0.40212-0.33-0.60621-0.39912c-0.10204-0.0346-0.2006-0.0509-0.29579-0.0425-0.0952 0.008-0.19314 0.0456-0.2671 0.11964z"/>
   <path d="m108.03 76.327c0.074 0.0738 0.17195 0.11086 0.26705 0.11915 0.0951 0.008 0.19349-0.008 0.2955-0.0428 0.20404-0.0691 0.42228-0.21518 0.60601-0.39889 0.18372-0.18373 0.3298-0.40193 0.3989-0.60601 0.39494-1.0913 0.39708-1.0862-0.63953-0.63996-0.20406 0.0692-0.42239 0.2153-0.60621 0.39912s-0.33 0.40212-0.39912 0.60622c-0.0346 0.10203-0.0509 0.20059-0.0425 0.29578 0.008 0.0952 0.0456 0.19314 0.11964 0.2671zm1.2378 1.2378c0.074 0.0738 0.17195 0.11086 0.26705 0.11915 0.0951 0.008 0.19349-0.008 0.2955-0.0428 0.20404-0.0691 0.42228-0.21518 0.606-0.39889 0.18373-0.18373 0.32981-0.40193 0.3989-0.60601 0.39495-1.0913 0.39709-1.0862-0.63952-0.63996-0.20406 0.0691-0.42239 0.2153-0.60621 0.39912s-0.33 0.40212-0.39912 0.60621c-0.0346 0.10204-0.0509 0.2006-0.0425 0.29579 0.008 0.0952 0.0456 0.19314 0.11964 0.2671z"/>
   <path d="m117.87 77.442c0.0738-0.074 0.11086-0.17195 0.11915-0.26705 0.008-0.0951-0.008-0.19349-0.0428-0.2955-0.0691-0.20404-0.21518-0.42228-0.39889-0.60601-0.18373-0.18372-0.40193-0.3298-0.60601-0.3989-1.0913-0.39494-1.0862-0.39708-0.63996 0.63953 0.0692 0.20406 0.2153 0.42239 0.39912 0.60621s0.40212 0.33 0.60622 0.39912c0.10203 0.0346 0.20059 0.0509 0.29578 0.0425 0.0952-0.008 0.19314-0.0456 0.2671-0.11964zm1.2378-1.2378c0.0738-0.074 0.11086-0.17195 0.11915-0.26705 0.008-0.0951-0.008-0.19349-0.0428-0.2955-0.0691-0.20404-0.21518-0.42228-0.39889-0.606-0.18373-0.18373-0.40193-0.32981-0.60601-0.3989-1.0913-0.39495-1.0862-0.39709-0.63996 0.63952 0.0691 0.20406 0.2153 0.42239 0.39912 0.60621s0.40212 0.33 0.60621 0.39912c0.10204 0.0346 0.2006 0.0509 0.29579 0.0425 0.0952-0.008 0.19314-0.0456 0.2671-0.11964z"/>
  </g>
 </g>
 <g transform="translate(-9.3064 -10.512)">
  <path d="m113.32 113.25c9.7784-6.0666 19.29-7.0703 32.714-1.1321 9.8404 5.8983 14.508 14.135 19.248 22.903-11.665 6.4015-22.486 7.4047-32.526 3.411-10.285-6.024-17.903-13.97-19.435-25.181z" stroke="none" fill="#4f1907"/>
  <path d="m114.68 113.41c-9.7784-6.0666-19.72-7.1564-33.144-1.2182-9.8404 5.8983-14.508 14.135-19.248 22.903 11.665 6.4015 22.486 7.4047 32.526 3.411 10.285-6.024 18.334-13.884 19.866-25.095z" stroke="none" fill="#4f1907"/>
  <path opacity="0.99" d="m114.11 174.45c0.72584 2.1564 0.97965 4.7062 0.73093 7.6748 0.13713 3.0837-0.15916 5.9506-0.67002 8.7103-0.9657-2.3324-1.5476-5.4398-1.5228-8.7712 0.0253-3.3944 0.60881-6.4992 1.4619-7.6139z" stroke="none" fill="#050505"/>
  <circle opacity="0.99" cx="119.23" cy="182.55" r="2.6192" stroke="none" fill="#fff"/>
  <path d="m106.73 109.58 14.343-0.0442-7.1278 3.4887z" stroke="none" fill="#863704"/>
 </g>
 <path opacity="0.99" d="m101.55 113.17 6.1941-0.0215 1.5651 2.5412c-3.8994-0.86229-6.7385-0.6861-9.3463 0.17228z"/>
 <circle stroke-linejoin="round" cx="104.32" stroke="#dd002a" cy="61.718" r="9.8977" stroke-width="1.5038" fill="none"/>
</svg>
